<svg width="1889" height="1475" xmlns="http://www.w3.org/2000/svg" xmlns:xlink="http://www.w3.org/1999/xlink" xml:space="preserve" overflow="hidden"><defs><clipPath id="clip0"><rect x="650" y="330" width="1889" height="1475"/></clipPath><clipPath id="clip1"><rect x="656" y="333" width="1877" height="1469"/></clipPath><clipPath id="clip2"><rect x="957" y="517" width="1213" height="795"/></clipPath><clipPath id="clip3"><rect x="957" y="517" width="1213" height="795"/></clipPath><clipPath id="clip4"><rect x="656" y="333" width="1877" height="1469"/></clipPath><clipPath id="clip5"><rect x="656" y="333" width="1877" height="1469"/></clipPath><clipPath id="clip6"><rect x="656" y="333" width="1877" height="1469"/></clipPath><clipPath id="clip7"><rect x="656" y="333" width="1877" height="1469"/></clipPath><clipPath id="clip8"><rect x="656" y="333" width="1877" height="1469"/></clipPath><clipPath id="clip9"><rect x="656" y="333" width="1877" height="1469"/></clipPath><clipPath id="clip10"><rect x="656" y="333" width="1877" height="1469"/></clipPath><clipPath id="clip11"><rect x="656" y="333" width="1877" height="1469"/></clipPath><clipPath id="clip12"><rect x="656" y="333" width="1877" height="1469"/></clipPath><clipPath id="clip13"><rect x="656" y="333" width="1877" height="1469"/></clipPath><clipPath id="clip14"><rect x="656" y="333" width="1877" height="1469"/></clipPath><clipPath id="clip15"><rect x="656" y="333" width="1877" height="1469"/></clipPath><clipPath id="clip16"><rect x="656" y="333" width="1877" height="1469"/></clipPath><clipPath id="clip17"><rect x="656" y="333" width="1877" height="1469"/></clipPath><clipPath id="clip18"><rect x="656" y="333" width="1877" height="1469"/></clipPath><clipPath id="clip19"><rect x="656" y="333" width="1877" height="1469"/></clipPath><clipPath id="clip20"><rect x="656" y="333" width="1877" height="1469"/></clipPath><clipPath id="clip21"><rect x="656" y="333" width="1877" height="1469"/></clipPath><clipPath id="clip22"><rect x="656" y="333" width="1877" height="1469"/></clipPath><clipPath id="clip23"><rect x="656" y="333" width="1877" height="1469"/></clipPath><clipPath id="clip24"><rect x="656" y="333" width="1877" height="1469"/></clipPath><clipPath id="clip25"><rect x="656" y="333" width="1877" height="1469"/></clipPath><clipPath id="clip26"><rect x="656" y="333" width="1877" height="1469"/></clipPath><clipPath id="clip27"><rect x="656" y="333" width="1877" height="1469"/></clipPath><clipPath id="clip28"><rect x="656" y="333" width="1877" height="1469"/></clipPath><clipPath id="clip29"><rect x="656" y="333" width="1877" height="1469"/></clipPath><clipPath id="clip30"><rect x="656" y="333" width="1877" height="1469"/></clipPath><clipPath id="clip31"><rect x="656" y="333" width="1877" height="1469"/></clipPath><clipPath id="clip32"><rect x="656" y="333" width="1877" height="1469"/></clipPath></defs><g clip-path="url(#clip0)" transform="translate(-650 -330)"><rect x="656" y="333" width="1878" height="1469" fill="#FFFFFF" fill-opacity="1"/><g clip-path="url(#clip1)"><path d="M957.5 1176.54 2166.5 1176.54M957.5 1045.53 2166.5 1045.53M957.5 913.53 2166.5 913.53M957.5 781.526 2166.5 781.526M957.5 649.521 2166.5 649.521M957.5 517.5 2166.5 517.5" stroke="#D9D9D9" stroke-width="3.4375" stroke-linecap="butt" stroke-linejoin="round" stroke-miterlimit="10" stroke-opacity="1" fill="none" fill-rule="nonzero"/></g><g clip-path="url(#clip2)"><path d="M1001.03 781.026 1086.04 781.026 1086.04 1309 1001.03 1309ZM1174.04 1157.04 1259.04 1157.04 1259.04 1309 1174.04 1309ZM1346.04 1195.04 1432.05 1195.04 1432.05 1309 1346.04 1309ZM1519.05 1281.04 1605.05 1281.04 1605.05 1309 1519.05 1309ZM1692.06 1294.04 1777.06 1294.04 1777.06 1309 1692.06 1309ZM1865.06 1300.04 1950.06 1300.04 1950.06 1309 1865.06 1309Z" fill="#4472C4" fill-rule="nonzero" fill-opacity="1"/></g><g clip-path="url(#clip3)"><path d="M1001.03 628.021 1086.04 628.021 1086.04 781.026 1001.03 781.026ZM1174.04 1094.04 1259.04 1094.04 1259.04 1157.04 1174.04 1157.04ZM1346.04 1153.04 1432.05 1153.04 1432.05 1195.04 1346.04 1195.04ZM1519.05 1268.04 1605.05 1268.04 1605.05 1281.04 1519.05 1281.04ZM1692.06 1289.04 1777.06 1289.04 1777.06 1294.04 1692.06 1294.04ZM1865.06 1296.04 1950.06 1296.04 1950.06 1300.04 1865.06 1300.04ZM2038.07 1307.04 2123.07 1307.04 2123.07 1309 2038.07 1309Z" fill="#ED7D31" fill-rule="nonzero" fill-opacity="1"/></g><g clip-path="url(#clip4)"><path d="M957.5 1308.5 2166.5 1308.5" stroke="#D9D9D9" stroke-width="3.4375" stroke-linecap="butt" stroke-linejoin="round" stroke-miterlimit="10" stroke-opacity="1" fill="none" fill-rule="evenodd"/></g><g clip-path="url(#clip5)"><text fill="#404040" fill-opacity="1" font-family="Calibri,Calibri_MSFontService,sans-serif" font-style="normal" font-variant="normal" font-weight="400" font-stretch="normal" font-size="41" text-anchor="start" direction="ltr" writing-mode="lr-tb" unicode-bidi="normal" text-decoration="none" transform="matrix(1 0 0 1 1012.19 719)">116</text></g><g clip-path="url(#clip6)"><text fill="#404040" fill-opacity="1" font-family="Calibri,Calibri_MSFontService,sans-serif" font-style="normal" font-variant="normal" font-weight="400" font-stretch="normal" font-size="41" text-anchor="start" direction="ltr" writing-mode="lr-tb" unicode-bidi="normal" text-decoration="none" transform="matrix(1 0 0 1 1195.44 1139)">48</text></g><g clip-path="url(#clip7)"><text fill="#404040" fill-opacity="1" font-family="Calibri,Calibri_MSFontService,sans-serif" font-style="normal" font-variant="normal" font-weight="400" font-stretch="normal" font-size="41" text-anchor="start" direction="ltr" writing-mode="lr-tb" unicode-bidi="normal" text-decoration="none" transform="matrix(1 0 0 1 1368.24 1188)">32</text></g><g clip-path="url(#clip8)"><text fill="#404040" fill-opacity="1" font-family="Calibri,Calibri_MSFontService,sans-serif" font-style="normal" font-variant="normal" font-weight="400" font-stretch="normal" font-size="41" text-anchor="start" direction="ltr" writing-mode="lr-tb" unicode-bidi="normal" text-decoration="none" transform="matrix(1 0 0 1 1541.05 1288)">10</text></g><g clip-path="url(#clip9)"><text fill="#404040" fill-opacity="1" font-family="Calibri,Calibri_MSFontService,sans-serif" font-style="normal" font-variant="normal" font-weight="400" font-stretch="normal" font-size="41" text-anchor="start" direction="ltr" writing-mode="lr-tb" unicode-bidi="normal" text-decoration="none" transform="matrix(1 0 0 1 1724.3 1306)">4</text></g><g clip-path="url(#clip10)"><text fill="#404040" fill-opacity="1" font-family="Calibri,Calibri_MSFontService,sans-serif" font-style="normal" font-variant="normal" font-weight="400" font-stretch="normal" font-size="41" text-anchor="start" direction="ltr" writing-mode="lr-tb" unicode-bidi="normal" text-decoration="none" transform="matrix(1 0 0 1 1897.1 1311)">3</text></g><g clip-path="url(#clip11)"><text fill="#404040" fill-opacity="1" font-family="Calibri,Calibri_MSFontService,sans-serif" font-style="normal" font-variant="normal" font-weight="400" font-stretch="normal" font-size="41" text-anchor="start" direction="ltr" writing-mode="lr-tb" unicode-bidi="normal" text-decoration="none" transform="matrix(1 0 0 1 2069.91 1322)">1</text></g><g clip-path="url(#clip12)"><text fill="#595959" fill-opacity="1" font-family="Calibri,Calibri_MSFontService,sans-serif" font-style="normal" font-variant="normal" font-weight="400" font-stretch="normal" font-size="60" text-anchor="start" direction="ltr" writing-mode="lr-tb" unicode-bidi="normal" text-decoration="none" transform="matrix(1 0 0 1 871.67 1325)">0</text></g><g clip-path="url(#clip13)"><text fill="#595959" fill-opacity="1" font-family="Calibri,Calibri_MSFontService,sans-serif" font-style="normal" font-variant="normal" font-weight="400" font-stretch="normal" font-size="60" text-anchor="start" direction="ltr" writing-mode="lr-tb" unicode-bidi="normal" text-decoration="none" transform="matrix(1 0 0 1 811.261 1193)">100</text></g><g clip-path="url(#clip14)"><text fill="#595959" fill-opacity="1" font-family="Calibri,Calibri_MSFontService,sans-serif" font-style="normal" font-variant="normal" font-weight="400" font-stretch="normal" font-size="60" text-anchor="start" direction="ltr" writing-mode="lr-tb" unicode-bidi="normal" text-decoration="none" transform="matrix(1 0 0 1 811.261 1061)">200</text></g><g clip-path="url(#clip15)"><text fill="#595959" fill-opacity="1" font-family="Calibri,Calibri_MSFontService,sans-serif" font-style="normal" font-variant="normal" font-weight="400" font-stretch="normal" font-size="60" text-anchor="start" direction="ltr" writing-mode="lr-tb" unicode-bidi="normal" text-decoration="none" transform="matrix(1 0 0 1 811.261 929)">300</text></g><g clip-path="url(#clip16)"><text fill="#595959" fill-opacity="1" font-family="Calibri,Calibri_MSFontService,sans-serif" font-style="normal" font-variant="normal" font-weight="400" font-stretch="normal" font-size="60" text-anchor="start" direction="ltr" writing-mode="lr-tb" unicode-bidi="normal" text-decoration="none" transform="matrix(1 0 0 1 811.261 797)">400</text></g><g clip-path="url(#clip17)"><text fill="#595959" fill-opacity="1" font-family="Calibri,Calibri_MSFontService,sans-serif" font-style="normal" font-variant="normal" font-weight="400" font-stretch="normal" font-size="60" text-anchor="start" direction="ltr" writing-mode="lr-tb" unicode-bidi="normal" text-decoration="none" transform="matrix(1 0 0 1 811.261 665)">500</text></g><g clip-path="url(#clip18)"><text fill="#595959" fill-opacity="1" font-family="Calibri,Calibri_MSFontService,sans-serif" font-style="normal" font-variant="normal" font-weight="400" font-stretch="normal" font-size="60" text-anchor="start" direction="ltr" writing-mode="lr-tb" unicode-bidi="normal" text-decoration="none" transform="matrix(1 0 0 1 811.261 533)">600</text></g><g clip-path="url(#clip19)"><text fill="#595959" fill-opacity="1" font-family="Calibri,Calibri_MSFontService,sans-serif" font-style="normal" font-variant="normal" font-weight="400" font-stretch="normal" font-size="60" text-anchor="start" direction="ltr" writing-mode="lr-tb" unicode-bidi="normal" text-decoration="none" transform="matrix(0.707107 -0.707107 0.707107 0.707107 910.869 1534)">Business</text></g><g clip-path="url(#clip20)"><text fill="#595959" fill-opacity="1" font-family="Calibri,Calibri_MSFontService,sans-serif" font-style="normal" font-variant="normal" font-weight="400" font-stretch="normal" font-size="60" text-anchor="start" direction="ltr" writing-mode="lr-tb" unicode-bidi="normal" text-decoration="none" transform="matrix(0.707107 -0.707107 0.707107 0.707107 1089.51 1528)">SocHum</text></g><g clip-path="url(#clip21)"><text fill="#595959" fill-opacity="1" font-family="Calibri,Calibri_MSFontService,sans-serif" font-style="normal" font-variant="normal" font-weight="400" font-stretch="normal" font-size="60" text-anchor="start" direction="ltr" writing-mode="lr-tb" unicode-bidi="normal" text-decoration="none" transform="matrix(0.707107 -0.707107 0.707107 0.707107 1221.2 1570)">OttherApp</text></g><g clip-path="url(#clip22)"><text fill="#595959" fill-opacity="1" font-family="Calibri,Calibri_MSFontService,sans-serif" font-style="normal" font-variant="normal" font-weight="400" font-stretch="normal" font-size="60" text-anchor="start" direction="ltr" writing-mode="lr-tb" unicode-bidi="normal" text-decoration="none" transform="matrix(0.707107 -0.707107 0.707107 0.707107 1370.59 1593)">ScienceEngr</text></g><g clip-path="url(#clip23)"><text fill="#595959" fill-opacity="1" font-family="Calibri,Calibri_MSFontService,sans-serif" font-style="normal" font-variant="normal" font-weight="400" font-stretch="normal" font-size="60" text-anchor="start" direction="ltr" writing-mode="lr-tb" unicode-bidi="normal" text-decoration="none" transform="matrix(0.707107 -0.707107 0.707107 0.707107 1633.34 1503)">LifeBio</text></g><g clip-path="url(#clip24)"><text fill="#595959" fill-opacity="1" font-family="Calibri,Calibri_MSFontService,sans-serif" font-style="normal" font-variant="normal" font-weight="400" font-stretch="normal" font-size="60" text-anchor="start" direction="ltr" writing-mode="lr-tb" unicode-bidi="normal" text-decoration="none" transform="matrix(0.707107 -0.707107 0.707107 0.707107 1681.55 1628)">CompSystems</text></g><g clip-path="url(#clip25)"><text fill="#595959" fill-opacity="1" font-family="Calibri,Calibri_MSFontService,sans-serif" font-style="normal" font-variant="normal" font-weight="400" font-stretch="normal" font-size="60" text-anchor="start" direction="ltr" writing-mode="lr-tb" unicode-bidi="normal" text-decoration="none" transform="matrix(0.707107 -0.707107 0.707107 0.707107 1845.95 1636)">MLStatsModel</text></g><g clip-path="url(#clip26)"><text fill="#595959" fill-opacity="1" font-family="Calibri,Calibri_MSFontService,sans-serif" font-style="normal" font-variant="normal" font-weight="400" font-stretch="normal" font-size="69" text-anchor="start" direction="ltr" writing-mode="lr-tb" unicode-bidi="normal" text-decoration="none" transform="matrix(6.12323e-17 -1 1 6.12323e-17 778.605 1103)"># Dashboards</text></g><g clip-path="url(#clip27)"><text fill="#595959" fill-opacity="1" font-family="Calibri,Calibri_MSFontService,sans-serif" font-style="normal" font-variant="normal" font-weight="400" font-stretch="normal" font-size="69" text-anchor="start" direction="ltr" writing-mode="lr-tb" unicode-bidi="normal" text-decoration="none" transform="matrix(1 0 0 1 1331.43 1726)">Application Area</text></g><g clip-path="url(#clip28)"><text fill="#595959" fill-opacity="1" font-family="Calibri,Calibri_MSFontService,sans-serif" font-style="normal" font-variant="normal" font-weight="400" font-stretch="normal" font-size="69" text-anchor="start" direction="ltr" writing-mode="lr-tb" unicode-bidi="normal" text-decoration="none" transform="matrix(1 0 0 1 1264.45 433)">Application Distribution</text></g><g clip-path="url(#clip29)"><rect x="2244" y="1064" width="33" height="33" fill="#ED7D31" fill-opacity="1"/></g><g clip-path="url(#clip30)"><text fill="#595959" fill-opacity="1" font-family="Calibri,Calibri_MSFontService,sans-serif" font-style="normal" font-variant="normal" font-weight="400" font-stretch="normal" font-size="60" text-anchor="start" direction="ltr" writing-mode="lr-tb" unicode-bidi="normal" text-decoration="none" transform="matrix(1 0 0 1 2291.21 1096)">Testing</text></g><g clip-path="url(#clip31)"><rect x="2244" y="1164" width="33" height="32" fill="#4472C4" fill-opacity="1"/></g><g clip-path="url(#clip32)"><text fill="#595959" fill-opacity="1" font-family="Calibri,Calibri_MSFontService,sans-serif" font-style="normal" font-variant="normal" font-weight="400" font-stretch="normal" font-size="60" text-anchor="start" direction="ltr" writing-mode="lr-tb" unicode-bidi="normal" text-decoration="none" transform="matrix(1 0 0 1 2291.21 1196)">Training</text></g><rect x="656.5" y="333.5" width="1878" height="1469" stroke="#D9D9D9" stroke-width="3.4375" stroke-linecap="butt" stroke-linejoin="round" stroke-miterlimit="10" stroke-opacity="1" fill="none"/></g></svg>